<svg width="220" height="64" viewBox="0 0 220 64" fill="none" xmlns="http://www.w3.org/2000/svg">
  <rect width="220" height="64" rx="18" fill="#16324F"/>
  <rect x="10" y="10" width="44" height="44" rx="14" fill="#C96B2C"/>
  <path d="M22 37.5L25.4 28.8C26.1 27 27.8 25.8 29.8 25.8H37.2C39.2 25.8 40.9 27 41.6 28.8L45 37.5" stroke="#FFF9F0" stroke-width="2.6" stroke-linecap="round" stroke-linejoin="round"/>
  <path d="M19.5 37.5H47.5" stroke="#FFF9F0" stroke-width="2.6" stroke-linecap="round"/>
  <path d="M24.5 37.5V40.2C24.5 41.1 23.8 41.8 22.9 41.8H22.6C21.7 41.8 21 41.1 21 40.2V37.9" stroke="#FFF9F0" stroke-width="2.4" stroke-linecap="round"/>
  <path d="M44 37.5V40.2C44 41.1 43.3 41.8 42.4 41.8H42.1C41.2 41.8 40.5 41.1 40.5 40.2V37.9" stroke="#FFF9F0" stroke-width="2.4" stroke-linecap="round"/>
  <circle cx="27" cy="37.5" r="2.1" fill="#FFF9F0"/>
  <circle cx="40" cy="37.5" r="2.1" fill="#FFF9F0"/>
  <path d="M27.5 25.8L30.2 21.8C30.8 20.9 31.8 20.4 32.9 20.4H34.1C35.2 20.4 36.2 20.9 36.8 21.8L39.5 25.8" stroke="#FFF9F0" stroke-width="2.4" stroke-linecap="round"/>
  <path d="M72 25.5H111.2" stroke="#D7DCE2" stroke-width="1.2" stroke-linecap="round"/>
  <path d="M72 38.5H146" stroke="#D7DCE2" stroke-width="1.2" stroke-linecap="round"/>
  <text x="72" y="22" fill="#FFF9F0" font-family="Georgia, 'Times New Roman', serif" font-size="12" letter-spacing="2">AUTO</text>
  <text x="72" y="52" fill="#FFF9F0" font-family="Georgia, 'Times New Roman', serif" font-size="26" font-weight="700">SHOWROOM</text>
</svg>
